:SAMPLES-PER-SECOND 30
:FRAME-RANGE 1-2091
:FULLY-SPECIFIED
:DEGREES
1503
root  77.6426 37.6239 85.0895 -23.1448 -77.9922 26.9299
RightUpLeg  9.27642 14.5267 2.25701
RightLeg  32.3845 14.675 9.61014
RightFoot  -14.5357 -0.459789 -12.9173
RightToes  5.38607e-012 1.2921e-014 -6.02303e-014
Spine  -5.251 -5.35932 -8.80119
Spine1  6.86042 -6.12942 3.43327
HEad  21.0873 -59.0649 4.69944
LeftShoulder1  0.774287 0.179735 -18.4396
LeftArm  -4.79383 20.9435 -41.709
LeftForeArm  26.7195 3.98411 -11.7591
LeftHand  -0.0152636 5.99163 2.74121
RightShoulder  0.180996 -2.80641 29.1085
RightArm  -30.2909 -3.8048 46.461
RightForeArm  63.9402 -5.0993 0.944818
RightHand  0.248974 -7.12919 -17.6304
LeftUpLeg  -26.1217 -16.3209 2.8049
LeftLeg  16.0399 -1.40143 0.51938
LeftFoot  -1.35074 1.27001 -14.3769
LeftToes  -7.20997e-011 3.75522e-011 -2.80735e-011
1504
root  76.5934 37.6468 85.5374 -33.2655 -79.9695 36.7376
RightUpLeg  6.64877 11.8278 -0.838378
RightLeg  39.9919 16.4467 14.0566
RightFoot  -10.1978 -0.00888906 -5.99714
RightToes  5.38607e-012 1.2921e-014 -6.02303e-014
Spine  -5.12369 -4.9482 -9.37578
Spine1  6.87217 -5.40824 1.86032
HEad  21.3439 -58.5126 3.929
LeftShoulder1  0.760595 0.266421 -18.7156
LeftArm  -4.30611 19.1557 -40.9695
LeftForeArm  26.9659 4.43301 -11.8916
LeftHand  -0.0165308 5.66455 4.12225
RightShoulder  0.26189 -2.5654 28.6209
RightArm  -31.7959 -5.21784 47.8014
RightForeArm  64.2346 -4.9598 0.188192
RightHand  0.284623 -7.32021 -18.0058
LeftUpLeg  -24.8559 -15.3559 1.46539
LeftLeg  18.6573 -0.358015 0.257152
LeftFoot  -2.32298 0.892479 -11.1148
LeftToes  -7.20997e-011 3.75522e-011 -2.80735e-011
1505
root  75.6637 37.7023 85.9536 -51.1877 -82.089 54.7101
RightUpLeg  1.65075 9.70222 -4.29353
RightLeg  49.3642 16.4183 19.1954
RightFoot  -4.36727 -0.210329 2.96243
RightToes  5.38607e-012 1.2921e-014 -6.02303e-014
Spine  -4.97834 -4.33269 -9.48545
Spine1  6.70968 -4.53619 0.190284
HEad  20.4677 -57.4549 3.43264
LeftShoulder1  0.727615 0.473963 -19.4359
LeftArm  -3.9516 16.7436 -40.3544
LeftForeArm  27.0843 5.0891 -11.9886
LeftHand  -0.00612374 5.9244 4.5441
RightShoulder  0.39857 -2.12597 27.2913
RightArm  -32.789 -6.05058 50.0803
RightForeArm  64.2645 -4.88717 -0.230043
RightHand  0.273427 -7.29862 -17.5712
LeftUpLeg  -23.4224 -12.9147 -0.0620345
LeftLeg  20.2376 0.290056 0.509562
LeftFoot  -3.77274 0.612213 -8.90203
LeftToes  -7.20997e-011 3.75522e-011 -2.80735e-011
1506
root  74.7912 37.7844 86.2892 -77.6775 -83.0499 81.2253
RightUpLeg  -4.25578 8.00676 -6.8992
RightLeg  57.7576 12.8616 20.5302
RightFoot  3.30921 -1.46105 11.5068
RightToes  5.38607e-012 1.2921e-014 -6.02303e-014
Spine  -4.41699 -4.03655 -9.93259
Spine1  6.14024 -4.05018 -1.27746
HEad  19.0646 -56.1124 3.12503
LeftShoulder1  0.705511 0.588051 -19.7207
LeftArm  -3.99859 14.8626 -40.0522
LeftForeArm  27.1067 5.29031 -11.9186
LeftHand  -0.0172807 5.53657 3.26787
RightShoulder  0.502873 -1.80187 27.0668
RightArm  -32.2833 -5.05762 51.4762
RightForeArm  65.4909 -4.88345 0.00829904
RightHand  0.235981 -7.1319 -16.8225
LeftUpLeg  -21.7322 -10.4481 -1.42365
LeftLeg  21.0698 1.08219 1.00903
LeftFoot  -5.63639 0.426521 -7.87468
LeftToes  -7.20997e-011 3.75522e-011 -2.80735e-011
1507
root  73.9285 37.9296 86.5716 -104.456 -82.9221 107.881
RightUpLeg  -9.6778 6.27382 -7.67713
RightLeg  63.7035 7.73276 16.0813
RightFoot  8.95074 -2.47317 14.1026
RightToes  5.38607e-012 1.2921e-014 -6.02303e-014
Spine  -3.55788 -3.96226 -10.4472
Spine1  5.51049 -4.04747 -1.58852
HEad  17.0894 -54.5387 3.45337
LeftShoulder1  0.755695 0.436938 -20.1308
LeftArm  -3.87435 13.2158 -40.2001
LeftForeArm  27.1692 5.26228 -11.9881
LeftHand  -0.00135419 5.95507 4.79545
RightShoulder  0.518025 -1.75548 27.058
RightArm  -30.5835 -3.52871 52.5487
RightForeArm  68.0144 -4.94218 0.904681
RightHand  0.208356 -7.05014 -15.8171
LeftUpLeg  -19.5886 -7.30551 -2.29098
LeftLeg  21.0432 1.05956 1.30766
LeftFoot  -7.2021 0.302057 -7.15916
LeftToes  -7.20997e-011 3.75522e-011 -2.80735e-011
1508
root  73.07 38.0979 86.7881 -125.993 -82.0841 129.329
RightUpLeg  -13.9387 4.17018 -7.05268
RightLeg  67.4526 3.71513 9.13769
RightFoot  5.35498 -1.46943 10.2397
RightToes  5.38607e-012 1.2921e-014 -6.02303e-014
Spine  -2.78447 -4.14475 -10.8994
Spine1  5.00248 -4.40238 -1.42221
HEad  15.2763 -53.4305 3.90872
LeftShoulder1  0.872464 -0.0518175 -19.7499
LeftArm  -4.42975 12.04 -41.0498
LeftForeArm  27.497 5.02762 -11.7643
LeftHand  -0.0137785 5.69757 3.91669
RightShoulder  0.53562 -1.70176 27.0516
RightArm  -27.7897 -2.37255 53.6816
RightForeArm  69.5615 -5.14986 2.48509
RightHand  0.217805 -7.20192 -15.1788
LeftUpLeg  -17.4244 -4.21719 -2.53093
LeftLeg  20.6497 0.823626 1.54743
LeftFoot  -8.45228 0.216955 -6.59168
LeftToes  -7.20997e-011 3.75522e-011 -2.80735e-011
1509
root  72.1948 38.31 86.9674 -142.013 -81.1111 145.344
RightUpLeg  -17.8362 2.00568 -5.41475
RightLeg  68.5267 1.79679 4.3391
RightFoot  1.78336 -0.507563 4.51494
RightToes  5.38607e-012 1.2921e-014 -6.02303e-014
Spine  -2.46277 -4.61286 -11.2679
Spine1  5.23913 -5.11676 -0.307
HEad  12.8824 -52.6612 5.15348
LeftShoulder1  0.908559 -0.249836 -19.2864
LeftArm  -4.59449 9.97236 -42.2782
LeftForeArm  27.947 5.00454 -11.7372
LeftHand  -0.0164331 5.60675 3.86438
RightShoulder  0.500472 -1.80445 26.9575
RightArm  -25.2418 -0.859273 55.1006
RightForeArm  69.5711 -5.36927 3.8007
RightHand  0.226322 -7.19085 -15.762
LeftUpLeg  -15.0986 -1.38336 -2.12079
LeftLeg  19.5649 0.550971 1.59673
LeftFoot  -9.39065 0.155755 -5.84185
LeftToes  -7.20997e-011 3.75522e-011 -2.80735e-011
1510
root  71.3493 38.4298 87.0945 -152.433 -79.7915 155.968
RightUpLeg  -21.4104 0.233839 -3.95278
RightLeg  66.955 1.49189 3.20384
RightFoot  -0.0756627 -0.285848 2.89145
RightToes  5.38607e-012 1.2921e-014 -6.02303e-014
Spine  -1.94417 -5.12875 -12.0298
Spine1  4.96938 -5.9093 0.964252
HEad  11.059 -52.1582 6.2554
LeftShoulder1  1.03238 -0.791625 -18.9047
LeftArm  -4.34262 8.03718 -43.0749
LeftForeArm  28.7498 4.6329 -11.8439
LeftHand  -0.0194752 5.59072 3.88268
RightShoulder  0.555107 -1.62716 26.7319
RightArm  -22.7142 0.0421292 56.2354
RightForeArm  67.5683 -5.65589 5.0706
RightHand  0.15657 -6.61574 -16.3661
LeftUpLeg  -13.3765 1.29525 -1.48284
LeftLeg  19.1347 -0.0869432 1.12045
LeftFoot  -10.5701 0.0977459 -5.11255
LeftToes  -7.20997e-011 3.75522e-011 -2.80735e-011
